<?xml version="1.0" standalone="no"?>
<!DOCTYPE svg PUBLIC "-//W3C//DTD SVG 20010904//EN"
 "http://www.w3.org/TR/2001/REC-SVG-20010904/DTD/svg10.dtd">
<svg version="1.0" xmlns="http://www.w3.org/2000/svg"
 width="512.000000pt" height="512.000000pt" viewBox="0 0 512.000000 512.000000"
 preserveAspectRatio="xMidYMid meet">

<g transform="translate(0.000000,512.000000) scale(0.100000,-0.100000)"
fill="#000000" stroke="none">
<path d="M0 2560 l0 -2560 2560 0 2560 0 0 2560 0 2560 -2560 0 -2560 0 0
-2560z m3060 1230 l0 -90 -535 0 -535 0 0 90 0 90 535 0 535 0 0 -90z m238
-244 c36 -19 78 -65 91 -99 17 -45 13 -117 -10 -164 -38 -79 -151 -118 -228
-78 -40 20 -78 69 -92 115 l-12 40 -483 0 -483 0 -11 -39 c-13 -48 -40 -83
-86 -111 -48 -30 -134 -25 -183 10 -67 50 -95 164 -58 235 18 37 65 84 92 96
11 4 339 8 728 8 591 1 712 -1 735 -13z m-978 -551 l0 -244 -69 -55 c-39 -31
-73 -60 -76 -66 -3 -5 -15 -15 -26 -20 -19 -11 -19 -5 -19 310 l0 320 95 0 95
0 0 -245z m340 85 c0 -110 -3 -160 -11 -160 -6 0 -49 -18 -95 -39 l-84 -40 0
200 0 199 95 0 95 0 0 -160z m340 40 l0 -119 -32 -5 c-18 -3 -55 -8 -82 -11
-27 -4 -55 -9 -62 -12 -11 -4 -14 20 -14 131 l0 136 95 0 95 0 0 -120z m125
-198 c-6 -5 -59 -48 -120 -97 -283 -228 -494 -439 -550 -551 l-27 -54 -249 0
c-136 0 -250 4 -253 8 -8 13 103 153 193 242 273 272 548 412 886 453 60 8
129 7 120 -1z m246 -1192 c20 -6 44 -19 54 -30 16 -18 16 -20 2 -26 -9 -3 -26
1 -39 10 -52 37 -141 8 -171 -57 -47 -99 10 -217 105 -217 62 0 78 13 78 65
l0 45 -40 0 c-29 0 -40 4 -40 15 0 13 11 15 58 13 l57 -3 3 -62 c2 -53 0 -64
-19 -82 -28 -26 -97 -36 -142 -22 -61 20 -117 101 -117 168 0 80 48 155 115
178 49 17 51 17 96 5z m-1791 -15 c0 -5 -25 -11 -55 -13 l-55 -3 0 -160 c0
-147 -1 -160 -17 -157 -16 3 -18 20 -21 161 l-3 157 -54 0 c-43 0 -55 3 -55
15 0 13 19 15 130 13 78 -2 130 -7 130 -13z m236 -150 c35 -88 63 -166 64
-172 1 -29 -33 -10 -48 27 l-17 40 -78 0 -77 0 -16 -40 c-16 -39 -44 -55 -44
-25 0 9 28 88 62 176 44 112 67 159 77 157 8 -2 41 -71 77 -163z m170 95 c25
-38 48 -70 50 -70 2 0 25 32 50 70 43 64 74 88 74 58 0 -7 -22 -46 -49 -87
l-49 -74 53 -80 c30 -44 52 -84 49 -89 -13 -21 -35 -3 -80 66 l-49 74 -50 -74
c-47 -69 -67 -85 -79 -66 -3 5 19 45 49 89 l53 80 -49 74 c-51 78 -58 99 -34
99 8 0 35 -31 61 -70z m272 -93 l3 -156 86 -3 c58 -2 88 -7 91 -15 3 -10 -23
-13 -107 -13 l-111 0 0 168 c0 93 3 172 7 176 22 21 28 -11 31 -157z m418 -7
c35 -90 64 -168 64 -172 0 -4 -8 -8 -18 -8 -13 0 -23 13 -32 40 l-13 40 -79 0
-80 0 -15 -40 c-11 -28 -21 -40 -32 -37 -21 4 -20 6 51 190 44 113 66 157 76
155 9 -2 40 -69 78 -168z m131 75 c13 -49 28 -108 34 -130 14 -50 19 -41 54
103 36 149 49 148 91 -8 17 -63 33 -121 35 -129 3 -8 21 45 39 118 31 120 48
156 67 137 6 -6 -74 -315 -88 -337 -18 -29 -36 5 -64 120 -16 66 -32 121 -35
121 -3 0 -19 -55 -36 -121 -26 -109 -43 -143 -61 -126 -8 9 -92 308 -93 330 0
12 6 17 17 15 11 -2 23 -30 40 -93z m731 12 l3 -77 99 0 100 0 0 80 c0 64 3
80 15 80 13 0 15 -26 15 -175 0 -149 -2 -175 -15 -175 -12 0 -15 16 -15 80 l0
80 -100 0 -99 0 -3 -77 c-3 -65 -6 -78 -20 -81 -17 -3 -18 10 -18 173 0 163 1
176 18 173 14 -3 17 -16 20 -81z m342 -233 c11 -12 10 -18 -3 -32 -16 -15 -18
-15 -34 0 -13 14 -14 20 -3 32 7 9 16 16 20 16 4 0 13 -7 20 -16z"/>
<path d="M1704 1577 l-31 -82 60 -3 c32 -2 62 -1 64 2 5 5 -45 144 -56 158 -3
4 -20 -30 -37 -75z"/>
<path d="M2565 1583 c-17 -42 -31 -80 -33 -85 -2 -4 26 -8 62 -8 36 0 66 2 66
4 0 6 -61 166 -64 166 -1 0 -15 -35 -31 -77z"/>
</g>
</svg>
